<svg width="16" height="17" viewBox="0 0 16 17" fill="none" xmlns="http://www.w3.org/2000/svg">
<g id="Group">
<path id="Vector" d="M4.5714 2.13033C5.3334 2.68566 5.92674 3.44366 6.4334 4.16899L6.72807 4.59833L7.00607 5.00833C7.14513 5.21148 7.20458 5.45869 7.17311 5.70286C7.14164 5.94702 7.02143 6.17108 6.8354 6.33233L5.53474 7.29833C5.4719 7.3437 5.42767 7.41035 5.41026 7.48588C5.39284 7.5614 5.40344 7.64069 5.44007 7.70899C5.73474 8.24433 6.25874 9.04166 6.85874 9.64166C7.4594 10.2417 8.29407 10.8003 8.86674 11.1283C8.93854 11.1686 9.02306 11.1799 9.10291 11.1598C9.18276 11.1397 9.25189 11.0898 9.29607 11.0203L10.1427 9.73166C10.2984 9.52489 10.528 9.38637 10.7835 9.34512C11.039 9.30386 11.3006 9.36306 11.5134 9.51033L11.9554 9.81633C12.7814 10.3897 13.6687 11.041 14.3474 11.9097C14.455 12.0482 14.5235 12.2131 14.5457 12.3871C14.5678 12.5611 14.5429 12.7379 14.4734 12.899C13.9154 14.201 12.5034 15.3097 11.0347 15.2557L10.8347 15.2443L10.6794 15.231L10.5074 15.211L10.3201 15.1857L10.1167 15.1523C10.0811 15.1459 10.0456 15.1392 10.0101 15.1323L9.78607 15.0843C9.7469 15.0757 9.70778 15.0668 9.66874 15.0577L9.42474 14.995L9.16807 14.9217L8.90007 14.835C7.6694 14.4177 6.1074 13.5977 4.50474 11.995C2.90274 10.393 2.08274 8.83099 1.6654 7.60033L1.57874 7.33233L1.5054 7.07566L1.44274 6.83166L1.39074 6.60099C1.37572 6.52875 1.36172 6.4563 1.34874 6.38366L1.3154 6.18033L1.28874 5.99299L1.2694 5.82099L1.25607 5.66566L1.2454 5.46566C1.1914 4.00166 2.31207 2.57966 3.60807 2.02433C3.76406 1.95697 3.93487 1.93133 4.10376 1.94991C4.27264 1.96849 4.4338 2.03067 4.5714 2.13033ZM9.99474 4.52699L10.0721 4.53566C10.5573 4.62126 11.0031 4.85829 11.3453 5.21278C11.6876 5.56727 11.9089 6.02102 11.9774 6.50899C12.0018 6.67778 11.9607 6.84951 11.8623 6.98886C11.764 7.12821 11.616 7.22458 11.4488 7.25814C11.2816 7.2917 11.1079 7.25991 10.9634 7.16929C10.8189 7.07868 10.7147 6.93614 10.6721 6.77099L10.6567 6.69433C10.6299 6.50306 10.5483 6.32365 10.4217 6.17778C10.2951 6.03191 10.129 5.92582 9.94341 5.87233L9.84007 5.84899C9.67267 5.81932 9.52293 5.72682 9.42147 5.5904C9.32002 5.45398 9.27451 5.28395 9.29427 5.11509C9.31402 4.94623 9.39755 4.7913 9.52775 4.68198C9.65796 4.57266 9.82501 4.51722 9.99474 4.52699ZM10.0001 2.50033C11.0609 2.50033 12.0784 2.92175 12.8285 3.6719C13.5786 4.42205 14.0001 5.43946 14.0001 6.50033C13.9999 6.67025 13.9348 6.83368 13.8182 6.95724C13.7015 7.0808 13.5421 7.15515 13.3725 7.16511C13.2028 7.17507 13.0358 7.11988 12.9055 7.01082C12.7752 6.90176 12.6915 6.74706 12.6714 6.57833L12.6667 6.50033C12.667 5.82327 12.4096 5.1715 11.9467 4.67734C11.4839 4.18319 10.8504 3.88369 10.1747 3.83966L10.0001 3.83366C9.82326 3.83366 9.65369 3.76342 9.52867 3.6384C9.40364 3.51337 9.3334 3.3438 9.3334 3.16699C9.3334 2.99018 9.40364 2.82061 9.52867 2.69559C9.65369 2.57056 9.82326 2.50033 10.0001 2.50033Z" fill="white"/>
</g>
</svg>
