<svg width="28" height="29" viewBox="0 0 28 29" fill="none" xmlns="http://www.w3.org/2000/svg">
<path id="Vector" d="M14 0.5C6.272 0.5 0 6.772 0 14.5C0 22.228 6.272 28.5 14 28.5C21.728 28.5 28 22.228 28 14.5C28 6.772 21.728 0.5 14 0.5ZM14 6.1C16.702 6.1 18.9 8.298 18.9 11C18.9 13.702 16.702 15.9 14 15.9C11.298 15.9 9.1 13.702 9.1 11C9.1 8.298 11.298 6.1 14 6.1ZM14 25.7C11.158 25.7 7.798 24.552 5.404 21.668C7.85625 19.744 10.8831 18.6983 14 18.6983C17.1169 18.6983 20.1438 19.744 22.596 21.668C20.202 24.552 16.842 25.7 14 25.7Z" fill="white"/>
</svg>
